%TF.GenerationSoftware,KiCad,Pcbnew,9.0.0*%
%TF.CreationDate,2025-04-01T10:30:40+05:30*%
%TF.ProjectId,Plant Monitoring System,506c616e-7420-44d6-9f6e-69746f72696e,rev?*%
%TF.SameCoordinates,Original*%
%TF.FileFunction,Legend,Top*%
%TF.FilePolarity,Positive*%
%FSLAX46Y46*%
G04 Gerber Fmt 4.6, Leading zero omitted, Abs format (unit mm)*
G04 Created by KiCad (PCBNEW 9.0.0) date 2025-04-01 10:30:40*
%MOMM*%
%LPD*%
G01*
G04 APERTURE LIST*
%ADD10C,0.150000*%
%ADD11C,0.120000*%
G04 APERTURE END LIST*
D10*
X135784819Y-139166666D02*
X135308628Y-139499999D01*
X135784819Y-139738094D02*
X134784819Y-139738094D01*
X134784819Y-139738094D02*
X134784819Y-139357142D01*
X134784819Y-139357142D02*
X134832438Y-139261904D01*
X134832438Y-139261904D02*
X134880057Y-139214285D01*
X134880057Y-139214285D02*
X134975295Y-139166666D01*
X134975295Y-139166666D02*
X135118152Y-139166666D01*
X135118152Y-139166666D02*
X135213390Y-139214285D01*
X135213390Y-139214285D02*
X135261009Y-139261904D01*
X135261009Y-139261904D02*
X135308628Y-139357142D01*
X135308628Y-139357142D02*
X135308628Y-139738094D01*
X134880057Y-138785713D02*
X134832438Y-138738094D01*
X134832438Y-138738094D02*
X134784819Y-138642856D01*
X134784819Y-138642856D02*
X134784819Y-138404761D01*
X134784819Y-138404761D02*
X134832438Y-138309523D01*
X134832438Y-138309523D02*
X134880057Y-138261904D01*
X134880057Y-138261904D02*
X134975295Y-138214285D01*
X134975295Y-138214285D02*
X135070533Y-138214285D01*
X135070533Y-138214285D02*
X135213390Y-138261904D01*
X135213390Y-138261904D02*
X135784819Y-138833332D01*
X135784819Y-138833332D02*
X135784819Y-138214285D01*
X128164405Y-121154819D02*
X128164405Y-120154819D01*
X128735833Y-121154819D02*
X128307262Y-120583390D01*
X128735833Y-120154819D02*
X128164405Y-120726247D01*
X129688214Y-121154819D02*
X129116786Y-121154819D01*
X129402500Y-121154819D02*
X129402500Y-120154819D01*
X129402500Y-120154819D02*
X129307262Y-120297676D01*
X129307262Y-120297676D02*
X129212024Y-120392914D01*
X129212024Y-120392914D02*
X129116786Y-120440533D01*
X124076666Y-156704819D02*
X124076666Y-157419104D01*
X124076666Y-157419104D02*
X124029047Y-157561961D01*
X124029047Y-157561961D02*
X123933809Y-157657200D01*
X123933809Y-157657200D02*
X123790952Y-157704819D01*
X123790952Y-157704819D02*
X123695714Y-157704819D01*
X124505238Y-156800057D02*
X124552857Y-156752438D01*
X124552857Y-156752438D02*
X124648095Y-156704819D01*
X124648095Y-156704819D02*
X124886190Y-156704819D01*
X124886190Y-156704819D02*
X124981428Y-156752438D01*
X124981428Y-156752438D02*
X125029047Y-156800057D01*
X125029047Y-156800057D02*
X125076666Y-156895295D01*
X125076666Y-156895295D02*
X125076666Y-156990533D01*
X125076666Y-156990533D02*
X125029047Y-157133390D01*
X125029047Y-157133390D02*
X124457619Y-157704819D01*
X124457619Y-157704819D02*
X125076666Y-157704819D01*
X129569580Y-140666666D02*
X129617200Y-140714285D01*
X129617200Y-140714285D02*
X129664819Y-140857142D01*
X129664819Y-140857142D02*
X129664819Y-140952380D01*
X129664819Y-140952380D02*
X129617200Y-141095237D01*
X129617200Y-141095237D02*
X129521961Y-141190475D01*
X129521961Y-141190475D02*
X129426723Y-141238094D01*
X129426723Y-141238094D02*
X129236247Y-141285713D01*
X129236247Y-141285713D02*
X129093390Y-141285713D01*
X129093390Y-141285713D02*
X128902914Y-141238094D01*
X128902914Y-141238094D02*
X128807676Y-141190475D01*
X128807676Y-141190475D02*
X128712438Y-141095237D01*
X128712438Y-141095237D02*
X128664819Y-140952380D01*
X128664819Y-140952380D02*
X128664819Y-140857142D01*
X128664819Y-140857142D02*
X128712438Y-140714285D01*
X128712438Y-140714285D02*
X128760057Y-140666666D01*
X128760057Y-140285713D02*
X128712438Y-140238094D01*
X128712438Y-140238094D02*
X128664819Y-140142856D01*
X128664819Y-140142856D02*
X128664819Y-139904761D01*
X128664819Y-139904761D02*
X128712438Y-139809523D01*
X128712438Y-139809523D02*
X128760057Y-139761904D01*
X128760057Y-139761904D02*
X128855295Y-139714285D01*
X128855295Y-139714285D02*
X128950533Y-139714285D01*
X128950533Y-139714285D02*
X129093390Y-139761904D01*
X129093390Y-139761904D02*
X129664819Y-140333332D01*
X129664819Y-140333332D02*
X129664819Y-139714285D01*
X137044819Y-139476666D02*
X136568628Y-139809999D01*
X137044819Y-140048094D02*
X136044819Y-140048094D01*
X136044819Y-140048094D02*
X136044819Y-139667142D01*
X136044819Y-139667142D02*
X136092438Y-139571904D01*
X136092438Y-139571904D02*
X136140057Y-139524285D01*
X136140057Y-139524285D02*
X136235295Y-139476666D01*
X136235295Y-139476666D02*
X136378152Y-139476666D01*
X136378152Y-139476666D02*
X136473390Y-139524285D01*
X136473390Y-139524285D02*
X136521009Y-139571904D01*
X136521009Y-139571904D02*
X136568628Y-139667142D01*
X136568628Y-139667142D02*
X136568628Y-140048094D01*
X136044819Y-139143332D02*
X136044819Y-138524285D01*
X136044819Y-138524285D02*
X136425771Y-138857618D01*
X136425771Y-138857618D02*
X136425771Y-138714761D01*
X136425771Y-138714761D02*
X136473390Y-138619523D01*
X136473390Y-138619523D02*
X136521009Y-138571904D01*
X136521009Y-138571904D02*
X136616247Y-138524285D01*
X136616247Y-138524285D02*
X136854342Y-138524285D01*
X136854342Y-138524285D02*
X136949580Y-138571904D01*
X136949580Y-138571904D02*
X136997200Y-138619523D01*
X136997200Y-138619523D02*
X137044819Y-138714761D01*
X137044819Y-138714761D02*
X137044819Y-139000475D01*
X137044819Y-139000475D02*
X136997200Y-139095713D01*
X136997200Y-139095713D02*
X136949580Y-139143332D01*
X126340714Y-38729104D02*
X126816904Y-38729104D01*
X126245476Y-39014819D02*
X126578809Y-38014819D01*
X126578809Y-38014819D02*
X126912142Y-39014819D01*
X127769285Y-39014819D02*
X127197857Y-39014819D01*
X127483571Y-39014819D02*
X127483571Y-38014819D01*
X127483571Y-38014819D02*
X127388333Y-38157676D01*
X127388333Y-38157676D02*
X127293095Y-38252914D01*
X127293095Y-38252914D02*
X127197857Y-38300533D01*
X133221905Y-154914819D02*
X133221905Y-153914819D01*
X133221905Y-153914819D02*
X133460000Y-153914819D01*
X133460000Y-153914819D02*
X133602857Y-153962438D01*
X133602857Y-153962438D02*
X133698095Y-154057676D01*
X133698095Y-154057676D02*
X133745714Y-154152914D01*
X133745714Y-154152914D02*
X133793333Y-154343390D01*
X133793333Y-154343390D02*
X133793333Y-154486247D01*
X133793333Y-154486247D02*
X133745714Y-154676723D01*
X133745714Y-154676723D02*
X133698095Y-154771961D01*
X133698095Y-154771961D02*
X133602857Y-154867200D01*
X133602857Y-154867200D02*
X133460000Y-154914819D01*
X133460000Y-154914819D02*
X133221905Y-154914819D01*
X134174286Y-154010057D02*
X134221905Y-153962438D01*
X134221905Y-153962438D02*
X134317143Y-153914819D01*
X134317143Y-153914819D02*
X134555238Y-153914819D01*
X134555238Y-153914819D02*
X134650476Y-153962438D01*
X134650476Y-153962438D02*
X134698095Y-154010057D01*
X134698095Y-154010057D02*
X134745714Y-154105295D01*
X134745714Y-154105295D02*
X134745714Y-154200533D01*
X134745714Y-154200533D02*
X134698095Y-154343390D01*
X134698095Y-154343390D02*
X134126667Y-154914819D01*
X134126667Y-154914819D02*
X134745714Y-154914819D01*
X118293333Y-137609580D02*
X118245714Y-137657200D01*
X118245714Y-137657200D02*
X118102857Y-137704819D01*
X118102857Y-137704819D02*
X118007619Y-137704819D01*
X118007619Y-137704819D02*
X117864762Y-137657200D01*
X117864762Y-137657200D02*
X117769524Y-137561961D01*
X117769524Y-137561961D02*
X117721905Y-137466723D01*
X117721905Y-137466723D02*
X117674286Y-137276247D01*
X117674286Y-137276247D02*
X117674286Y-137133390D01*
X117674286Y-137133390D02*
X117721905Y-136942914D01*
X117721905Y-136942914D02*
X117769524Y-136847676D01*
X117769524Y-136847676D02*
X117864762Y-136752438D01*
X117864762Y-136752438D02*
X118007619Y-136704819D01*
X118007619Y-136704819D02*
X118102857Y-136704819D01*
X118102857Y-136704819D02*
X118245714Y-136752438D01*
X118245714Y-136752438D02*
X118293333Y-136800057D01*
X119245714Y-137704819D02*
X118674286Y-137704819D01*
X118960000Y-137704819D02*
X118960000Y-136704819D01*
X118960000Y-136704819D02*
X118864762Y-136847676D01*
X118864762Y-136847676D02*
X118769524Y-136942914D01*
X118769524Y-136942914D02*
X118674286Y-136990533D01*
X131293333Y-127054819D02*
X130960000Y-126578628D01*
X130721905Y-127054819D02*
X130721905Y-126054819D01*
X130721905Y-126054819D02*
X131102857Y-126054819D01*
X131102857Y-126054819D02*
X131198095Y-126102438D01*
X131198095Y-126102438D02*
X131245714Y-126150057D01*
X131245714Y-126150057D02*
X131293333Y-126245295D01*
X131293333Y-126245295D02*
X131293333Y-126388152D01*
X131293333Y-126388152D02*
X131245714Y-126483390D01*
X131245714Y-126483390D02*
X131198095Y-126531009D01*
X131198095Y-126531009D02*
X131102857Y-126578628D01*
X131102857Y-126578628D02*
X130721905Y-126578628D01*
X132245714Y-127054819D02*
X131674286Y-127054819D01*
X131960000Y-127054819D02*
X131960000Y-126054819D01*
X131960000Y-126054819D02*
X131864762Y-126197676D01*
X131864762Y-126197676D02*
X131769524Y-126292914D01*
X131769524Y-126292914D02*
X131674286Y-126340533D01*
X153626666Y-136784819D02*
X153626666Y-137499104D01*
X153626666Y-137499104D02*
X153579047Y-137641961D01*
X153579047Y-137641961D02*
X153483809Y-137737200D01*
X153483809Y-137737200D02*
X153340952Y-137784819D01*
X153340952Y-137784819D02*
X153245714Y-137784819D01*
X154007619Y-136784819D02*
X154626666Y-136784819D01*
X154626666Y-136784819D02*
X154293333Y-137165771D01*
X154293333Y-137165771D02*
X154436190Y-137165771D01*
X154436190Y-137165771D02*
X154531428Y-137213390D01*
X154531428Y-137213390D02*
X154579047Y-137261009D01*
X154579047Y-137261009D02*
X154626666Y-137356247D01*
X154626666Y-137356247D02*
X154626666Y-137594342D01*
X154626666Y-137594342D02*
X154579047Y-137689580D01*
X154579047Y-137689580D02*
X154531428Y-137737200D01*
X154531428Y-137737200D02*
X154436190Y-137784819D01*
X154436190Y-137784819D02*
X154150476Y-137784819D01*
X154150476Y-137784819D02*
X154055238Y-137737200D01*
X154055238Y-137737200D02*
X154007619Y-137689580D01*
X144626666Y-139864819D02*
X144626666Y-140579104D01*
X144626666Y-140579104D02*
X144579047Y-140721961D01*
X144579047Y-140721961D02*
X144483809Y-140817200D01*
X144483809Y-140817200D02*
X144340952Y-140864819D01*
X144340952Y-140864819D02*
X144245714Y-140864819D01*
X145531428Y-139864819D02*
X145340952Y-139864819D01*
X145340952Y-139864819D02*
X145245714Y-139912438D01*
X145245714Y-139912438D02*
X145198095Y-139960057D01*
X145198095Y-139960057D02*
X145102857Y-140102914D01*
X145102857Y-140102914D02*
X145055238Y-140293390D01*
X145055238Y-140293390D02*
X145055238Y-140674342D01*
X145055238Y-140674342D02*
X145102857Y-140769580D01*
X145102857Y-140769580D02*
X145150476Y-140817200D01*
X145150476Y-140817200D02*
X145245714Y-140864819D01*
X145245714Y-140864819D02*
X145436190Y-140864819D01*
X145436190Y-140864819D02*
X145531428Y-140817200D01*
X145531428Y-140817200D02*
X145579047Y-140769580D01*
X145579047Y-140769580D02*
X145626666Y-140674342D01*
X145626666Y-140674342D02*
X145626666Y-140436247D01*
X145626666Y-140436247D02*
X145579047Y-140341009D01*
X145579047Y-140341009D02*
X145531428Y-140293390D01*
X145531428Y-140293390D02*
X145436190Y-140245771D01*
X145436190Y-140245771D02*
X145245714Y-140245771D01*
X145245714Y-140245771D02*
X145150476Y-140293390D01*
X145150476Y-140293390D02*
X145102857Y-140341009D01*
X145102857Y-140341009D02*
X145055238Y-140436247D01*
X146544819Y-144833333D02*
X147259104Y-144833333D01*
X147259104Y-144833333D02*
X147401961Y-144880952D01*
X147401961Y-144880952D02*
X147497200Y-144976190D01*
X147497200Y-144976190D02*
X147544819Y-145119047D01*
X147544819Y-145119047D02*
X147544819Y-145214285D01*
X147544819Y-143833333D02*
X147544819Y-144404761D01*
X147544819Y-144119047D02*
X146544819Y-144119047D01*
X146544819Y-144119047D02*
X146687676Y-144214285D01*
X146687676Y-144214285D02*
X146782914Y-144309523D01*
X146782914Y-144309523D02*
X146830533Y-144404761D01*
X119158095Y-126184819D02*
X119158095Y-126994342D01*
X119158095Y-126994342D02*
X119205714Y-127089580D01*
X119205714Y-127089580D02*
X119253333Y-127137200D01*
X119253333Y-127137200D02*
X119348571Y-127184819D01*
X119348571Y-127184819D02*
X119539047Y-127184819D01*
X119539047Y-127184819D02*
X119634285Y-127137200D01*
X119634285Y-127137200D02*
X119681904Y-127089580D01*
X119681904Y-127089580D02*
X119729523Y-126994342D01*
X119729523Y-126994342D02*
X119729523Y-126184819D01*
X120729523Y-127184819D02*
X120158095Y-127184819D01*
X120443809Y-127184819D02*
X120443809Y-126184819D01*
X120443809Y-126184819D02*
X120348571Y-126327676D01*
X120348571Y-126327676D02*
X120253333Y-126422914D01*
X120253333Y-126422914D02*
X120158095Y-126470533D01*
X154744819Y-120333333D02*
X155459104Y-120333333D01*
X155459104Y-120333333D02*
X155601961Y-120380952D01*
X155601961Y-120380952D02*
X155697200Y-120476190D01*
X155697200Y-120476190D02*
X155744819Y-120619047D01*
X155744819Y-120619047D02*
X155744819Y-120714285D01*
X155078152Y-119428571D02*
X155744819Y-119428571D01*
X154697200Y-119666666D02*
X155411485Y-119904761D01*
X155411485Y-119904761D02*
X155411485Y-119285714D01*
X154126666Y-95084819D02*
X154126666Y-95799104D01*
X154126666Y-95799104D02*
X154079047Y-95941961D01*
X154079047Y-95941961D02*
X153983809Y-96037200D01*
X153983809Y-96037200D02*
X153840952Y-96084819D01*
X153840952Y-96084819D02*
X153745714Y-96084819D01*
X154507619Y-95084819D02*
X155174285Y-95084819D01*
X155174285Y-95084819D02*
X154745714Y-96084819D01*
X116621009Y-114540952D02*
X116668628Y-114398095D01*
X116668628Y-114398095D02*
X116716247Y-114350476D01*
X116716247Y-114350476D02*
X116811485Y-114302857D01*
X116811485Y-114302857D02*
X116954342Y-114302857D01*
X116954342Y-114302857D02*
X117049580Y-114350476D01*
X117049580Y-114350476D02*
X117097200Y-114398095D01*
X117097200Y-114398095D02*
X117144819Y-114493333D01*
X117144819Y-114493333D02*
X117144819Y-114874285D01*
X117144819Y-114874285D02*
X116144819Y-114874285D01*
X116144819Y-114874285D02*
X116144819Y-114540952D01*
X116144819Y-114540952D02*
X116192438Y-114445714D01*
X116192438Y-114445714D02*
X116240057Y-114398095D01*
X116240057Y-114398095D02*
X116335295Y-114350476D01*
X116335295Y-114350476D02*
X116430533Y-114350476D01*
X116430533Y-114350476D02*
X116525771Y-114398095D01*
X116525771Y-114398095D02*
X116573390Y-114445714D01*
X116573390Y-114445714D02*
X116621009Y-114540952D01*
X116621009Y-114540952D02*
X116621009Y-114874285D01*
X116144819Y-113969523D02*
X116144819Y-113302857D01*
X116144819Y-113302857D02*
X117144819Y-113969523D01*
X117144819Y-113969523D02*
X117144819Y-113302857D01*
X117144819Y-112398095D02*
X117144819Y-112969523D01*
X117144819Y-112683809D02*
X116144819Y-112683809D01*
X116144819Y-112683809D02*
X116287676Y-112779047D01*
X116287676Y-112779047D02*
X116382914Y-112874285D01*
X116382914Y-112874285D02*
X116430533Y-112969523D01*
X111073866Y-108870951D02*
X111073866Y-108109047D01*
X111454819Y-108489999D02*
X110692914Y-108489999D01*
X138559819Y-161833333D02*
X139274104Y-161833333D01*
X139274104Y-161833333D02*
X139416961Y-161880952D01*
X139416961Y-161880952D02*
X139512200Y-161976190D01*
X139512200Y-161976190D02*
X139559819Y-162119047D01*
X139559819Y-162119047D02*
X139559819Y-162214285D01*
X138559819Y-160880952D02*
X138559819Y-161357142D01*
X138559819Y-161357142D02*
X139036009Y-161404761D01*
X139036009Y-161404761D02*
X138988390Y-161357142D01*
X138988390Y-161357142D02*
X138940771Y-161261904D01*
X138940771Y-161261904D02*
X138940771Y-161023809D01*
X138940771Y-161023809D02*
X138988390Y-160928571D01*
X138988390Y-160928571D02*
X139036009Y-160880952D01*
X139036009Y-160880952D02*
X139131247Y-160833333D01*
X139131247Y-160833333D02*
X139369342Y-160833333D01*
X139369342Y-160833333D02*
X139464580Y-160880952D01*
X139464580Y-160880952D02*
X139512200Y-160928571D01*
X139512200Y-160928571D02*
X139559819Y-161023809D01*
X139559819Y-161023809D02*
X139559819Y-161261904D01*
X139559819Y-161261904D02*
X139512200Y-161357142D01*
X139512200Y-161357142D02*
X139464580Y-161404761D01*
X120221905Y-154424819D02*
X120221905Y-153424819D01*
X120221905Y-153424819D02*
X120460000Y-153424819D01*
X120460000Y-153424819D02*
X120602857Y-153472438D01*
X120602857Y-153472438D02*
X120698095Y-153567676D01*
X120698095Y-153567676D02*
X120745714Y-153662914D01*
X120745714Y-153662914D02*
X120793333Y-153853390D01*
X120793333Y-153853390D02*
X120793333Y-153996247D01*
X120793333Y-153996247D02*
X120745714Y-154186723D01*
X120745714Y-154186723D02*
X120698095Y-154281961D01*
X120698095Y-154281961D02*
X120602857Y-154377200D01*
X120602857Y-154377200D02*
X120460000Y-154424819D01*
X120460000Y-154424819D02*
X120221905Y-154424819D01*
X121745714Y-154424819D02*
X121174286Y-154424819D01*
X121460000Y-154424819D02*
X121460000Y-153424819D01*
X121460000Y-153424819D02*
X121364762Y-153567676D01*
X121364762Y-153567676D02*
X121269524Y-153662914D01*
X121269524Y-153662914D02*
X121174286Y-153710533D01*
X125778095Y-154054819D02*
X125778095Y-153054819D01*
X126349523Y-154054819D02*
X125920952Y-153483390D01*
X126349523Y-153054819D02*
X125778095Y-153626247D01*
D11*
%TO.C,R2*%
X131590000Y-135730000D02*
X131590000Y-142270000D01*
X131590000Y-142270000D02*
X131920000Y-142270000D01*
X131920000Y-135730000D02*
X131590000Y-135730000D01*
X134000000Y-135730000D02*
X134330000Y-135730000D01*
X134330000Y-135730000D02*
X134330000Y-142270000D01*
X134330000Y-142270000D02*
X134000000Y-142270000D01*
%TO.C,K1*%
X118202500Y-118300000D02*
X118202500Y-121500000D01*
X118202500Y-121500000D02*
X120702500Y-121500000D01*
X118402500Y-104500000D02*
X146602500Y-104500000D01*
X118402500Y-119700000D02*
X118402500Y-104500000D01*
X122102500Y-119700000D02*
X120802500Y-119700000D01*
X133202500Y-119700000D02*
X124602500Y-119700000D01*
X138202500Y-119700000D02*
X136002500Y-119700000D01*
X143202500Y-119700000D02*
X141002500Y-119700000D01*
X146602500Y-104500000D02*
X146602500Y-119700000D01*
X146602500Y-119700000D02*
X146202500Y-119700000D01*
%TO.C,J2*%
X114860000Y-166750000D02*
X114860000Y-167800000D01*
X115060000Y-158400000D02*
X116960000Y-158400000D01*
X115060000Y-161100000D02*
X115060000Y-158400000D01*
X115060000Y-167600000D02*
X115060000Y-165000000D01*
X115910000Y-167800000D02*
X114860000Y-167800000D01*
X120960000Y-158400000D02*
X129760000Y-158400000D01*
X129760000Y-158400000D02*
X129760000Y-167600000D01*
X129760000Y-167600000D02*
X115060000Y-167600000D01*
%TO.C,C2*%
X128080000Y-140500000D02*
G75*
G02*
X123840000Y-140500000I-2120000J0D01*
G01*
X123840000Y-140500000D02*
G75*
G02*
X128080000Y-140500000I2120000J0D01*
G01*
%TO.C,R3*%
X137590000Y-136040000D02*
X137920000Y-136040000D01*
X137590000Y-142580000D02*
X137590000Y-136040000D01*
X137920000Y-142580000D02*
X137590000Y-142580000D01*
X140000000Y-142580000D02*
X140330000Y-142580000D01*
X140330000Y-136040000D02*
X140000000Y-136040000D01*
X140330000Y-142580000D02*
X140330000Y-136040000D01*
%TO.C,A1*%
X91365000Y-72090000D02*
X91365000Y-83770000D01*
X91365000Y-83770000D02*
X97715000Y-83770000D01*
X95815000Y-42880000D02*
X95815000Y-52020000D01*
X95815000Y-52020000D02*
X97715000Y-52020000D01*
X97715000Y-39700000D02*
X97715000Y-42880000D01*
X97715000Y-42880000D02*
X95815000Y-42880000D01*
X97715000Y-52020000D02*
X97715000Y-72090000D01*
X97715000Y-72090000D02*
X91365000Y-72090000D01*
X97715000Y-83770000D02*
X97715000Y-93300000D01*
X97715000Y-93300000D02*
X162365000Y-93300000D01*
X162365000Y-93300000D02*
X164015000Y-91650000D01*
X164015000Y-39700000D02*
X97715000Y-39700000D01*
X164015000Y-42370000D02*
X164015000Y-39700000D01*
X164015000Y-80220000D02*
X166555000Y-77680000D01*
X164015000Y-91650000D02*
X164015000Y-80220000D01*
X166555000Y-44910000D02*
X164015000Y-42370000D01*
X166555000Y-77680000D02*
X166555000Y-44910000D01*
%TO.C,D2*%
X135520000Y-150420000D02*
X135520000Y-150264000D01*
X135520000Y-152736000D02*
X135520000Y-152580000D01*
X132288603Y-150419939D02*
G75*
G02*
X135520000Y-150264484I1671397J-1080061D01*
G01*
X132919090Y-150419951D02*
G75*
G02*
X135000961Y-150420000I1040910J-1080049D01*
G01*
X135000961Y-152580000D02*
G75*
G02*
X132919090Y-152580049I-1040961J1080000D01*
G01*
X135520000Y-152735516D02*
G75*
G02*
X132288603Y-152580061I-1560000J1235516D01*
G01*
%TO.C,C1*%
X121080000Y-141000000D02*
G75*
G02*
X115840000Y-141000000I-2620000J0D01*
G01*
X115840000Y-141000000D02*
G75*
G02*
X121080000Y-141000000I2620000J0D01*
G01*
%TO.C,R1*%
X129910000Y-127350000D02*
X132960000Y-127350000D01*
X129910000Y-131650000D02*
X132960000Y-131650000D01*
X129910000Y-131650000D02*
G75*
G02*
X129931766Y-127334475I1550000J2150000D01*
G01*
X132960000Y-127350000D02*
G75*
G02*
X133004513Y-131618249I-1500000J-2150000D01*
G01*
%TO.C,J3*%
X152630000Y-133730000D02*
X152630000Y-126050000D01*
X155290000Y-126050000D02*
X152630000Y-126050000D01*
X155290000Y-133730000D02*
X152630000Y-133730000D01*
X155290000Y-133730000D02*
X155290000Y-126050000D01*
X155290000Y-135000000D02*
X155290000Y-136330000D01*
X155290000Y-136330000D02*
X153960000Y-136330000D01*
%TO.C,J6*%
X143630000Y-136810000D02*
X143630000Y-124050000D01*
X146290000Y-124050000D02*
X143630000Y-124050000D01*
X146290000Y-136810000D02*
X143630000Y-136810000D01*
X146290000Y-136810000D02*
X146290000Y-124050000D01*
X146290000Y-138080000D02*
X146290000Y-139410000D01*
X146290000Y-139410000D02*
X144960000Y-139410000D01*
%TO.C,J1*%
X148090000Y-145830000D02*
X148090000Y-144500000D01*
X149420000Y-145830000D02*
X148090000Y-145830000D01*
X150690000Y-143170000D02*
X155830000Y-143170000D01*
X150690000Y-145830000D02*
X150690000Y-143170000D01*
X150690000Y-145830000D02*
X155830000Y-145830000D01*
X155830000Y-145830000D02*
X155830000Y-143170000D01*
%TO.C,U1*%
X114800000Y-127730000D02*
X114800000Y-132371000D01*
X114800000Y-127730000D02*
X125040000Y-127730000D01*
X114800000Y-129240000D02*
X125040000Y-129240000D01*
X114800000Y-132371000D02*
X125040000Y-132371000D01*
X118070000Y-127730000D02*
X118070000Y-129240000D01*
X121771000Y-127730000D02*
X121771000Y-129240000D01*
X125040000Y-127730000D02*
X125040000Y-132371000D01*
%TO.C,J4*%
X149090000Y-118670000D02*
X149090000Y-121330000D01*
X151690000Y-118670000D02*
X149090000Y-118670000D01*
X151690000Y-118670000D02*
X151690000Y-121330000D01*
X151690000Y-121330000D02*
X149090000Y-121330000D01*
X152960000Y-118670000D02*
X154290000Y-118670000D01*
X154290000Y-118670000D02*
X154290000Y-120000000D01*
%TO.C,J7*%
X153130000Y-96630000D02*
X154460000Y-96630000D01*
X153130000Y-97960000D02*
X153130000Y-96630000D01*
X153130000Y-99230000D02*
X153130000Y-117070000D01*
X153130000Y-99230000D02*
X155790000Y-99230000D01*
X153130000Y-117070000D02*
X155790000Y-117070000D01*
X155790000Y-99230000D02*
X155790000Y-117070000D01*
%TO.C,BZ1*%
X115560000Y-113500000D02*
G75*
G02*
X101360000Y-113500000I-7100000J0D01*
G01*
X101360000Y-113500000D02*
G75*
G02*
X115560000Y-113500000I7100000J0D01*
G01*
%TO.C,J5*%
X132905000Y-160170000D02*
X132905000Y-162830000D01*
X135505000Y-160170000D02*
X132905000Y-160170000D01*
X135505000Y-160170000D02*
X135505000Y-162830000D01*
X135505000Y-162830000D02*
X132905000Y-162830000D01*
X136775000Y-160170000D02*
X138105000Y-160170000D01*
X138105000Y-160170000D02*
X138105000Y-161500000D01*
%TO.C,D1*%
X117220000Y-151500000D02*
X118240000Y-151500000D01*
X118240000Y-150030000D02*
X118240000Y-152970000D01*
X118240000Y-152970000D02*
X123680000Y-152970000D01*
X122660000Y-152970000D02*
X122660000Y-150030000D01*
X122780000Y-152970000D02*
X122780000Y-150030000D01*
X122900000Y-152970000D02*
X122900000Y-150030000D01*
X123680000Y-150030000D02*
X118240000Y-150030000D01*
X123680000Y-152970000D02*
X123680000Y-150030000D01*
X124700000Y-151500000D02*
X123680000Y-151500000D01*
%TD*%
M02*
