M48
; DRILL file {KiCad 9.0.0} date 2025-04-01T10:31:17+0530
; FORMAT={-:-/ absolute / metric / decimal}
; #@! TF.CreationDate,2025-04-01T10:31:17+05:30
; #@! TF.GenerationSoftware,Kicad,Pcbnew,9.0.0
; #@! TF.FileFunction,Plated,1,2,PTH
FMAT,2
METRIC
; #@! TA.AperFunction,Plated,PTH,ComponentDrill
T1C0.600
; #@! TA.AperFunction,Plated,PTH,ComponentDrill
T2C0.800
; #@! TA.AperFunction,Plated,PTH,ComponentDrill
T3C0.900
; #@! TA.AperFunction,Plated,PTH,ComponentDrill
T4C1.000
; #@! TA.AperFunction,Plated,PTH,ComponentDrill
T5C1.100
; #@! TA.AperFunction,Plated,PTH,ComponentDrill
T6C1.300
%
G90
G05
T1
X125.96Y-139.75
X125.96Y-141.25
T2
X117.46Y-141.0
X119.46Y-141.0
X129.76Y-129.5
X132.96Y-135.19
X132.96Y-142.81
X133.16Y-129.5
X138.96Y-135.5
X138.96Y-143.12
T3
X132.69Y-151.5
X135.23Y-151.5
T4
X108.46Y-108.5
X108.46Y-118.5
X119.602Y-120.2
X121.725Y-90.63
X123.352Y-120.2
X124.265Y-90.63
X125.785Y-42.37
X126.805Y-90.63
X128.325Y-42.37
X129.345Y-90.63
X130.865Y-42.37
X131.885Y-90.63
X133.405Y-42.37
X134.235Y-161.5
X134.425Y-90.63
X135.945Y-42.37
X136.775Y-161.5
X136.965Y-90.63
X138.485Y-42.37
X139.505Y-90.63
X141.025Y-42.37
X143.565Y-42.37
X143.565Y-90.63
X144.96Y-125.38
X144.96Y-127.92
X144.96Y-130.46
X144.96Y-133.0
X144.96Y-135.54
X144.96Y-138.08
X146.105Y-90.63
X148.645Y-42.37
X148.645Y-90.63
X149.42Y-144.5
X150.42Y-120.0
X151.185Y-42.37
X151.185Y-90.63
X151.96Y-144.5
X152.96Y-120.0
X153.725Y-42.37
X153.725Y-90.63
X153.96Y-127.38
X153.96Y-129.92
X153.96Y-132.46
X153.96Y-135.0
X154.46Y-97.96
X154.46Y-100.5
X154.46Y-103.04
X154.46Y-105.58
X154.46Y-108.12
X154.46Y-110.66
X154.46Y-113.2
X154.46Y-115.74
X154.5Y-144.5
X156.265Y-42.37
X156.265Y-90.63
X158.805Y-42.37
X158.805Y-90.63
X161.345Y-42.37
X161.345Y-90.63
T5
X115.88Y-151.5
X117.38Y-131.0
X119.92Y-131.0
X122.46Y-131.0
X126.04Y-151.5
T6
X134.602Y-120.2
X139.602Y-120.2
X144.602Y-120.2
T4
G00X115.96Y-164.0
M15
G01X115.96Y-162.0
M16
G05
G00X119.96Y-158.3
M15
G01X117.96Y-158.3
M16
G05
G00X121.96Y-164.0
M15
G01X121.96Y-162.0
M16
G05
M30
