%TF.GenerationSoftware,KiCad,Pcbnew,9.0.0*%
%TF.CreationDate,2025-04-01T10:30:40+05:30*%
%TF.ProjectId,Plant Monitoring System,506c616e-7420-44d6-9f6e-69746f72696e,rev?*%
%TF.SameCoordinates,Original*%
%TF.FileFunction,Copper,L2,Bot*%
%TF.FilePolarity,Positive*%
%FSLAX46Y46*%
G04 Gerber Fmt 4.6, Leading zero omitted, Abs format (unit mm)*
G04 Created by KiCad (PCBNEW 9.0.0) date 2025-04-01 10:30:40*
%MOMM*%
%LPD*%
G01*
G04 APERTURE LIST*
G04 Aperture macros list*
%AMRoundRect*
0 Rectangle with rounded corners*
0 $1 Rounding radius*
0 $2 $3 $4 $5 $6 $7 $8 $9 X,Y pos of 4 corners*
0 Add a 4 corners polygon primitive as box body*
4,1,4,$2,$3,$4,$5,$6,$7,$8,$9,$2,$3,0*
0 Add four circle primitives for the rounded corners*
1,1,$1+$1,$2,$3*
1,1,$1+$1,$4,$5*
1,1,$1+$1,$6,$7*
1,1,$1+$1,$8,$9*
0 Add four rect primitives between the rounded corners*
20,1,$1+$1,$2,$3,$4,$5,0*
20,1,$1+$1,$4,$5,$6,$7,0*
20,1,$1+$1,$6,$7,$8,$9,0*
20,1,$1+$1,$8,$9,$2,$3,0*%
G04 Aperture macros list end*
%TA.AperFunction,ComponentPad*%
%ADD10C,1.600000*%
%TD*%
%TA.AperFunction,ComponentPad*%
%ADD11O,1.600000X1.600000*%
%TD*%
%TA.AperFunction,ComponentPad*%
%ADD12C,2.400000*%
%TD*%
%TA.AperFunction,ComponentPad*%
%ADD13R,2.000000X2.000000*%
%TD*%
%TA.AperFunction,ComponentPad*%
%ADD14C,2.000000*%
%TD*%
%TA.AperFunction,ComponentPad*%
%ADD15R,3.500000X3.500000*%
%TD*%
%TA.AperFunction,ComponentPad*%
%ADD16RoundRect,0.750000X0.750000X1.000000X-0.750000X1.000000X-0.750000X-1.000000X0.750000X-1.000000X0*%
%TD*%
%TA.AperFunction,ComponentPad*%
%ADD17RoundRect,0.875000X0.875000X0.875000X-0.875000X0.875000X-0.875000X-0.875000X0.875000X-0.875000X0*%
%TD*%
%TA.AperFunction,ComponentPad*%
%ADD18C,1.200000*%
%TD*%
%TA.AperFunction,ComponentPad*%
%ADD19R,1.600000X1.600000*%
%TD*%
%TA.AperFunction,ComponentPad*%
%ADD20R,1.800000X1.800000*%
%TD*%
%TA.AperFunction,ComponentPad*%
%ADD21C,1.800000*%
%TD*%
%TA.AperFunction,ComponentPad*%
%ADD22C,1.500000*%
%TD*%
%TA.AperFunction,ComponentPad*%
%ADD23R,1.700000X1.700000*%
%TD*%
%TA.AperFunction,ComponentPad*%
%ADD24O,1.700000X1.700000*%
%TD*%
%TA.AperFunction,ComponentPad*%
%ADD25R,1.905000X2.000000*%
%TD*%
%TA.AperFunction,ComponentPad*%
%ADD26O,1.905000X2.000000*%
%TD*%
%TA.AperFunction,ComponentPad*%
%ADD27R,2.200000X2.200000*%
%TD*%
%TA.AperFunction,ComponentPad*%
%ADD28O,2.200000X2.200000*%
%TD*%
%TA.AperFunction,Conductor*%
%ADD29C,0.250000*%
%TD*%
G04 APERTURE END LIST*
D10*
%TO.P,R2,1*%
%TO.N,/LDR_Out*%
X132960000Y-135190000D03*
D11*
%TO.P,R2,2*%
%TO.N,GND*%
X132960000Y-142810000D03*
%TD*%
D12*
%TO.P,K1,11*%
%TO.N,/PUMP_PWR*%
X139602500Y-120200000D03*
%TO.P,K1,12*%
%TO.N,unconnected-(K1-Pad12)*%
X134602500Y-120200000D03*
%TO.P,K1,14*%
%TO.N,/PUMP_PWR*%
X144602500Y-120200000D03*
D13*
%TO.P,K1,A1*%
%TO.N,/RELAY_CTRL*%
X123352500Y-120200000D03*
D14*
%TO.P,K1,A2*%
%TO.N,GND*%
X119602500Y-120200000D03*
%TD*%
D15*
%TO.P,J2,1*%
%TO.N,+12V*%
X115960000Y-163000000D03*
D16*
%TO.P,J2,2*%
%TO.N,GND*%
X121960000Y-163000000D03*
D17*
%TO.P,J2,3*%
%TO.N,N/C*%
X118960000Y-158300000D03*
%TD*%
D18*
%TO.P,C2,1*%
%TO.N,+5V*%
X125960000Y-139750000D03*
%TO.P,C2,2*%
%TO.N,GND*%
X125960000Y-141250000D03*
%TD*%
D10*
%TO.P,R3,1*%
%TO.N,/LED_OUT*%
X138960000Y-143120000D03*
D11*
%TO.P,R3,2*%
%TO.N,+5V*%
X138960000Y-135500000D03*
%TD*%
D19*
%TO.P,A1,1,NC*%
%TO.N,unconnected-(A1-NC-Pad1)*%
X125785000Y-42370000D03*
D11*
%TO.P,A1,2,IOREF*%
%TO.N,unconnected-(A1-IOREF-Pad2)*%
X128325000Y-42370000D03*
%TO.P,A1,3,~{RESET}*%
%TO.N,unconnected-(A1-~{RESET}-Pad3)*%
X130865000Y-42370000D03*
%TO.P,A1,4,3V3*%
%TO.N,unconnected-(A1-3V3-Pad4)*%
X133405000Y-42370000D03*
%TO.P,A1,5,+5V*%
%TO.N,+5V*%
X135945000Y-42370000D03*
%TO.P,A1,6,GND*%
%TO.N,unconnected-(A1-GND-Pad6)*%
X138485000Y-42370000D03*
%TO.P,A1,7,GND*%
%TO.N,GND*%
X141025000Y-42370000D03*
%TO.P,A1,8,VIN*%
%TO.N,unconnected-(A1-VIN-Pad8)*%
X143565000Y-42370000D03*
%TO.P,A1,9,A0*%
%TO.N,/LDR_Out*%
X148645000Y-42370000D03*
%TO.P,A1,10,A1*%
%TO.N,+5V*%
X151185000Y-42370000D03*
%TO.P,A1,11,A2*%
%TO.N,unconnected-(A1-A2-Pad11)*%
X153725000Y-42370000D03*
%TO.P,A1,12,A3*%
%TO.N,unconnected-(A1-A3-Pad12)*%
X156265000Y-42370000D03*
%TO.P,A1,13,SDA/A4*%
%TO.N,/SDA*%
X158805000Y-42370000D03*
%TO.P,A1,14,SCL/A5*%
%TO.N,/SCL*%
X161345000Y-42370000D03*
%TO.P,A1,15,D0/RX*%
%TO.N,unconnected-(A1-D0{slash}RX-Pad15)*%
X161345000Y-90630000D03*
%TO.P,A1,16,D1/TX*%
%TO.N,unconnected-(A1-D1{slash}TX-Pad16)*%
X158805000Y-90630000D03*
%TO.P,A1,17,D2*%
%TO.N,unconnected-(A1-D2-Pad17)*%
X156265000Y-90630000D03*
%TO.P,A1,18,D3*%
%TO.N,unconnected-(A1-D3-Pad18)*%
X153725000Y-90630000D03*
%TO.P,A1,19,D4*%
%TO.N,unconnected-(A1-D4-Pad19)*%
X151185000Y-90630000D03*
%TO.P,A1,20,D5*%
%TO.N,unconnected-(A1-D5-Pad20)*%
X148645000Y-90630000D03*
%TO.P,A1,21,D6*%
%TO.N,unconnected-(A1-D6-Pad21)*%
X146105000Y-90630000D03*
%TO.P,A1,22,D7*%
%TO.N,/DHT11_Out*%
X143565000Y-90630000D03*
%TO.P,A1,23,D8*%
%TO.N,/RELAY_CTRL*%
X139505000Y-90630000D03*
%TO.P,A1,24,D9*%
%TO.N,/BUZZER_CTRL*%
X136965000Y-90630000D03*
%TO.P,A1,25,D10*%
%TO.N,unconnected-(A1-D10-Pad25)*%
X134425000Y-90630000D03*
%TO.P,A1,26,D11*%
%TO.N,unconnected-(A1-D11-Pad26)*%
X131885000Y-90630000D03*
%TO.P,A1,27,D12*%
%TO.N,unconnected-(A1-D12-Pad27)*%
X129345000Y-90630000D03*
%TO.P,A1,28,D13*%
%TO.N,unconnected-(A1-D13-Pad28)*%
X126805000Y-90630000D03*
%TO.P,A1,29,GND*%
%TO.N,unconnected-(A1-GND-Pad29)*%
X124265000Y-90630000D03*
%TO.P,A1,30,AREF*%
%TO.N,unconnected-(A1-AREF-Pad30)*%
X121725000Y-90630000D03*
%TD*%
D20*
%TO.P,D2,1,K*%
%TO.N,/LED_OUT*%
X135230000Y-151500000D03*
D21*
%TO.P,D2,2,A*%
%TO.N,GND*%
X132690000Y-151500000D03*
%TD*%
D10*
%TO.P,C1,1*%
%TO.N,+12V*%
X117460000Y-141000000D03*
%TO.P,C1,2*%
%TO.N,GND*%
X119460000Y-141000000D03*
%TD*%
D22*
%TO.P,R1,1*%
%TO.N,+5V*%
X129760000Y-129500000D03*
%TO.P,R1,2*%
%TO.N,/LDR_Out*%
X133160000Y-129500000D03*
%TD*%
D23*
%TO.P,J3,1,Pin_1*%
%TO.N,+5V*%
X153960000Y-135000000D03*
D24*
%TO.P,J3,2,Pin_2*%
%TO.N,GND*%
X153960000Y-132460000D03*
%TO.P,J3,3,Pin_3*%
%TO.N,/SDA*%
X153960000Y-129920000D03*
%TO.P,J3,4,Pin_4*%
%TO.N,/SCL*%
X153960000Y-127380000D03*
%TD*%
D23*
%TO.P,J6,1,Pin_1*%
%TO.N,+5V*%
X144960000Y-138080000D03*
D24*
%TO.P,J6,2,Pin_2*%
%TO.N,GND*%
X144960000Y-135540000D03*
%TO.P,J6,3,Pin_3*%
%TO.N,/LDR_Out*%
X144960000Y-133000000D03*
%TO.P,J6,4,Pin_4*%
%TO.N,/SDA*%
X144960000Y-130460000D03*
%TO.P,J6,5,Pin_5*%
%TO.N,/SCL*%
X144960000Y-127920000D03*
%TO.P,J6,6,Pin_6*%
%TO.N,unconnected-(J6-Pin_6-Pad6)*%
X144960000Y-125380000D03*
%TD*%
D23*
%TO.P,J1,1,Pin_1*%
%TO.N,+5V*%
X149420000Y-144500000D03*
D24*
%TO.P,J1,2,Pin_2*%
%TO.N,/DHT11_Out*%
X151960000Y-144500000D03*
%TO.P,J1,3,Pin_3*%
%TO.N,GND*%
X154500000Y-144500000D03*
%TD*%
D25*
%TO.P,U1,1,IN*%
%TO.N,+12V*%
X117380000Y-131000000D03*
D26*
%TO.P,U1,2,GND*%
%TO.N,GND*%
X119920000Y-131000000D03*
%TO.P,U1,3,OUT*%
%TO.N,+5V*%
X122460000Y-131000000D03*
%TD*%
D23*
%TO.P,J4,1,Pin_1*%
%TO.N,/PUMP_PWR*%
X152960000Y-120000000D03*
D24*
%TO.P,J4,2,Pin_2*%
%TO.N,GND*%
X150420000Y-120000000D03*
%TD*%
D23*
%TO.P,J7,1,Pin_1*%
%TO.N,/DHT11_Out*%
X154460000Y-97960000D03*
D24*
%TO.P,J7,2,Pin_2*%
%TO.N,/RELAY_CTRL*%
X154460000Y-100500000D03*
%TO.P,J7,3,Pin_3*%
%TO.N,unconnected-(J7-Pin_3-Pad3)*%
X154460000Y-103040000D03*
%TO.P,J7,4,Pin_4*%
%TO.N,unconnected-(J7-Pin_4-Pad4)*%
X154460000Y-105580000D03*
%TO.P,J7,5,Pin_5*%
%TO.N,unconnected-(J7-Pin_5-Pad5)*%
X154460000Y-108120000D03*
%TO.P,J7,6,Pin_6*%
%TO.N,unconnected-(J7-Pin_6-Pad6)*%
X154460000Y-110660000D03*
%TO.P,J7,7,Pin_7*%
%TO.N,unconnected-(J7-Pin_7-Pad7)*%
X154460000Y-113200000D03*
%TO.P,J7,8,Pin_8*%
%TO.N,unconnected-(J7-Pin_8-Pad8)*%
X154460000Y-115740000D03*
%TD*%
D13*
%TO.P,BZ1,1,+*%
%TO.N,/BUZZER_CTRL*%
X108460000Y-108500000D03*
D14*
%TO.P,BZ1,2,-*%
%TO.N,GND*%
X108460000Y-118500000D03*
%TD*%
D23*
%TO.P,J5,1,Pin_1*%
%TO.N,+5V*%
X136775000Y-161500000D03*
D24*
%TO.P,J5,2,Pin_2*%
%TO.N,GND*%
X134235000Y-161500000D03*
%TD*%
D27*
%TO.P,D1,1,K*%
%TO.N,GND*%
X126040000Y-151500000D03*
D28*
%TO.P,D1,2,A*%
%TO.N,+12V*%
X115880000Y-151500000D03*
%TD*%
D29*
%TO.N,/BUZZER_CTRL*%
X108460000Y-108500000D02*
X119095000Y-108500000D01*
X119095000Y-108500000D02*
X136965000Y-90630000D01*
%TO.N,/LDR_Out*%
X132960000Y-135190000D02*
X135150000Y-133000000D01*
X133160000Y-129500000D02*
X133160000Y-134990000D01*
X133160000Y-134990000D02*
X132960000Y-135190000D01*
X135150000Y-133000000D02*
X144960000Y-133000000D01*
%TO.N,/RELAY_CTRL*%
X139505000Y-90630000D02*
X149375000Y-100500000D01*
X149375000Y-100500000D02*
X154460000Y-100500000D01*
%TO.N,+5V*%
X136000000Y-37500000D02*
X151500000Y-37500000D01*
X139000000Y-138000000D02*
X138960000Y-137960000D01*
X145920000Y-138080000D02*
X149000000Y-135000000D01*
X149420000Y-144500000D02*
X149420000Y-148855000D01*
X122460000Y-131000000D02*
X122460000Y-136250000D01*
X144960000Y-138080000D02*
X144960000Y-140040000D01*
X151185000Y-38315000D02*
X151185000Y-42370000D01*
X129760000Y-129500000D02*
X129760000Y-137760000D01*
X138960000Y-137960000D02*
X138960000Y-135500000D01*
X128260000Y-131000000D02*
X129760000Y-129500000D01*
X129760000Y-137760000D02*
X130000000Y-138000000D01*
X122460000Y-136250000D02*
X125960000Y-139750000D01*
X122460000Y-131000000D02*
X128260000Y-131000000D01*
X149420000Y-148855000D02*
X136775000Y-161500000D01*
X144960000Y-140040000D02*
X149420000Y-144500000D01*
X135945000Y-42370000D02*
X136000000Y-42315000D01*
X136000000Y-42315000D02*
X136000000Y-37500000D01*
X149000000Y-135000000D02*
X153960000Y-135000000D01*
X138960000Y-135500000D02*
X142380000Y-135500000D01*
X151500000Y-37500000D02*
X151500000Y-38000000D01*
X144960000Y-138080000D02*
X145920000Y-138080000D01*
X142380000Y-135500000D02*
X144960000Y-138080000D01*
X151500000Y-38000000D02*
X151185000Y-38315000D01*
X130000000Y-138000000D02*
X139000000Y-138000000D01*
%TO.N,/DHT11_Out*%
X150895000Y-97960000D02*
X154460000Y-97960000D01*
X143565000Y-90630000D02*
X150895000Y-97960000D01*
%TO.N,/SDA*%
X172420000Y-129920000D02*
X153960000Y-129920000D01*
X158805000Y-38195000D02*
X159000000Y-38000000D01*
X144960000Y-130460000D02*
X153420000Y-130460000D01*
X172500000Y-130000000D02*
X172420000Y-129920000D01*
X173000000Y-130000000D02*
X172500000Y-130000000D01*
X173000000Y-38000000D02*
X173000000Y-130000000D01*
X153420000Y-130460000D02*
X153960000Y-129920000D01*
X158805000Y-42370000D02*
X158805000Y-38195000D01*
X159000000Y-38000000D02*
X173000000Y-38000000D01*
%TO.N,/SCL*%
X170500000Y-42500000D02*
X170500000Y-110840000D01*
X144960000Y-127920000D02*
X153420000Y-127920000D01*
X161345000Y-42370000D02*
X170370000Y-42370000D01*
X170370000Y-42370000D02*
X170500000Y-42500000D01*
X153420000Y-127920000D02*
X153960000Y-127380000D01*
X170500000Y-110840000D02*
X153960000Y-127380000D01*
%TO.N,GND*%
X119460000Y-141000000D02*
X125710000Y-141000000D01*
X126500000Y-161500000D02*
X134235000Y-161500000D01*
X119602500Y-120200000D02*
X119602500Y-120897500D01*
X121960000Y-163000000D02*
X125000000Y-163000000D01*
X132690000Y-143080000D02*
X132960000Y-142810000D01*
X126000000Y-162000000D02*
X126040000Y-161960000D01*
X158000000Y-144500000D02*
X154500000Y-144500000D01*
X144960000Y-135540000D02*
X148040000Y-132460000D01*
X126000000Y-162000000D02*
X126500000Y-161500000D01*
X131400000Y-141250000D02*
X132960000Y-142810000D01*
X119460000Y-141000000D02*
X119460000Y-131460000D01*
X119602500Y-120897500D02*
X119920000Y-121215000D01*
X154500000Y-165500000D02*
X153500000Y-166500000D01*
X153960000Y-132460000D02*
X157960000Y-132460000D01*
X119460000Y-131460000D02*
X119920000Y-131000000D01*
X153500000Y-166500000D02*
X134000000Y-166500000D01*
X119920000Y-121215000D02*
X119920000Y-131000000D01*
X134000000Y-166500000D02*
X134235000Y-166265000D01*
X125960000Y-141250000D02*
X131400000Y-141250000D01*
X126040000Y-161960000D02*
X126040000Y-151500000D01*
X117902500Y-118500000D02*
X108460000Y-118500000D01*
X119602500Y-120200000D02*
X117902500Y-118500000D01*
X126040000Y-151500000D02*
X132690000Y-151500000D01*
X148040000Y-132460000D02*
X153960000Y-132460000D01*
X157960000Y-132460000D02*
X158000000Y-132500000D01*
X125710000Y-141000000D02*
X125960000Y-141250000D01*
X132690000Y-151500000D02*
X132690000Y-143080000D01*
X158000000Y-132500000D02*
X158000000Y-144500000D01*
X125000000Y-163000000D02*
X126000000Y-162000000D01*
X154500000Y-144500000D02*
X154500000Y-165500000D01*
X134235000Y-166265000D02*
X134235000Y-161500000D01*
%TO.N,+12V*%
X117460000Y-149920000D02*
X115880000Y-151500000D01*
X117380000Y-140920000D02*
X117460000Y-141000000D01*
X115880000Y-151880000D02*
X115960000Y-151960000D01*
X117460000Y-141000000D02*
X117460000Y-149920000D01*
X115960000Y-151960000D02*
X115960000Y-163000000D01*
X115880000Y-151500000D02*
X115880000Y-151880000D01*
X117380000Y-131000000D02*
X117380000Y-140920000D01*
%TO.N,/LED_OUT*%
X135230000Y-151500000D02*
X135230000Y-146850000D01*
X135230000Y-146850000D02*
X138960000Y-143120000D01*
%TO.N,/PUMP_PWR*%
X144500000Y-123000000D02*
X144602500Y-122897500D01*
X153000000Y-123000000D02*
X144500000Y-123000000D01*
X152960000Y-122960000D02*
X153000000Y-123000000D01*
X139602500Y-120200000D02*
X144602500Y-120200000D01*
X144602500Y-122897500D02*
X144602500Y-120200000D01*
X152960000Y-120000000D02*
X152960000Y-122960000D01*
%TD*%
M02*
